<?xml version="1.0" encoding="UTF-8"?>
<svg width="100" height="100" viewBox="0 0 100 100" xmlns="http://www.w3.org/2000/svg">
  <g fill="#FFFFFF">
    <!-- Baseball stitches pattern -->
    <path d="M20,50 C20,33.431 33.431,20 50,20 C66.569,20 80,33.431 80,50 C80,66.569 66.569,80 50,80 C33.431,80 20,66.569 20,50 Z M50,15 C30.67,15 15,30.67 15,50 C15,69.33 30.67,85 50,85 C69.33,85 85,69.33 85,50 C85,30.67 69.33,15 50,15 Z" />
    
    <!-- Horizontal stitches -->
    <path d="M30,50 L70,50" stroke="#FFFFFF" stroke-width="2" fill="none" stroke-dasharray="5,3" />
    
    <!-- Vertical stitches -->
    <path d="M50,30 L50,70" stroke="#FFFFFF" stroke-width="2" fill="none" stroke-dasharray="5,3" />
    
    <!-- Diagonal stitches -->
    <path d="M35,35 L65,65" stroke="#FFFFFF" stroke-width="2" fill="none" stroke-dasharray="5,3" />
    <path d="M35,65 L65,35" stroke="#FFFFFF" stroke-width="2" fill="none" stroke-dasharray="5,3" />
  </g>
</svg>
