<svg xmlns="http://www.w3.org/2000/svg" width="40" height="24" viewBox="0 0 40 24">
  <rect width="40" height="24" rx="4" fill="#006FCF"/>
  <path d="M6.5 9L4 14.5H7.5L8 13.5H9.5L10 14.5H19.5V13.5L20 14.5H23L24 12.5V14.5H30L31 13.5H32.5L33 14.5H36.5L34 9H30.5L29.5 11V9H26L25 10.5L24 9H14V10L13.5 9H6.5ZM7.5 10H10L12 14H10.5L10 13H7.5L7 14H5.5L7.5 10ZM15 10H18.5L20 13.5V10H23L24 12.5L25 10H28.5V14H26.5L26.489 11L25 14H22.5L21 11V14H17.5L17 13H15.5L15 14H13.5L15 10ZM31 10H35L37 14H35L34.5 13H32L31.5 14H29.5L31 10ZM8.8 11L8 12.5H9.5L8.8 11ZM16.3 11L15.5 12.5H17L16.3 11ZM33.3 11L32.5 12.5H34L33.3 11Z" fill="white"/>
</svg> 