<svg xmlns="http://www.w3.org/2000/svg" width="24" height="24" viewBox="0 0 24 24">
  <circle cx="12" cy="12" r="12" fill="#F7931A"/>
  <path d="M16.1385 10.4038C16.3223 8.84491 15.1385 8.00183 13.5069 7.44491L13.9769 5.64491L12.9231 5.36183L12.4646 7.11645C12.1877 7.04799 11.9039 6.98337 11.6215 6.9183L12.0846 5.14953L11.0308 4.86645L10.5608 6.66645C10.3308 6.61261 10.1054 6.55876 9.88462 6.50261L9.88539 6.49876L8.45385 6.12183L8.15385 7.26645C8.15385 7.26645 8.93846 7.44491 8.92308 7.45261C9.38462 7.56645 9.46923 7.87722 9.45385 8.12953L8.92308 10.173C8.95385 10.1807 8.99385 10.1922 9.03846 10.2115L8.92308 10.1807L8.17385 13.0453C8.11769 13.1961 7.97385 13.4115 7.64615 13.3307C7.65385 13.3422 6.87692 13.1384 6.87692 13.1384L6.30769 14.3769L7.66154 14.7346C7.96154 14.8038 8.25385 14.8768 8.54 14.9461L8.06923 16.7692L9.12308 17.0522L9.59308 15.2523C9.88 15.3292 10.1585 15.4 10.43 15.4661L9.96231 17.2584L11.0162 17.5415L11.4869 15.7223C13.6662 16.1438 15.3115 15.9677 16.04 13.9977C16.6223 12.4053 16.0331 11.4992 14.8792 10.9115C15.6946 10.7308 16.3 10.173 16.1385 10.4038ZM13.4515 13.1961C13.04 14.7884 10.4231 13.9115 9.67385 13.7192L10.3077 11.3115C11.0569 11.5046 13.8869 11.5346 13.4515 13.1961ZM13.8662 8.58337C13.4908 10.0353 11.2938 9.28337 10.6646 9.12183L11.2408 6.93337C11.87 7.09491 14.2638 7.0653 13.8662 8.58337Z" fill="white"/>
</svg> 