<svg xmlns="http://www.w3.org/2000/svg" width="40" height="24" viewBox="0 0 40 24">
  <rect width="40" height="24" rx="4" fill="#FFFFFF"/>
  <path d="M16.8776 9.1931L13.9367 14.8069H12L13.4612 9.5035C13.5551 9.1931 13.8367 9 14.1184 9H16.2204C16.5959 9 16.7837 9.1931 16.8776 9.1931ZM27.8776 9.1931L25.5 14.8069H23.5633L24.9306 9.5035C25.0245 9.1931 25.3061 9 25.5878 9H27.2204C27.5959 9 27.7837 9.1931 27.8776 9.1931ZM23.4694 9L21.0918 14.8069H19.0612L17.5061 10.5863C17.5061 10.5863 19.1551 9.7724 20.9918 9.1931C21.4612 9 22.0245 9 22.4 9H23.4694ZM39 9L36.2449 14.8069H34.2143L31.3673 9H33.5918L35.2408 12.7931L36.7959 9H39Z" fill="#00579F"/>
  <path d="M4.70918 9C4.14694 9 3.67755 9.0966 3.30204 9.29C2.82653 9.38655 2.44694 9.58 2.06735 9.77345L1.5 10.0631L2.06735 14.8069H4.14694L4.42449 13.4007H6.22041L6.40408 14.8069H8.57143L7.47755 9H4.70918ZM4.89286 11.981L5.17041 11.1672H5.35408L5.63163 11.981H4.89286Z" fill="#00579F"/>
</svg> 